<svg version="1.1" id="Layer_1" xmlns="http://www.w3.org/2000/svg" xmlns:xlink="http://www.w3.org/1999/xlink" x="0px" y="0px"
	 width="100%" viewBox="0 0 547 501" enable-background="new 0 0 547 501" xml:space="preserve">
<path fill="#000000" opacity="1.000000" stroke="none" 
	d="
M307.000000,502.000000 
	C204.690933,502.000000 102.881882,502.000000 1.036409,502.000000 
	C1.036409,335.064087 1.036409,168.128159 1.036409,1.096118 
	C183.225739,1.096118 365.451569,1.096118 547.838684,1.096118 
	C547.838684,167.999878 547.838684,334.999908 547.838684,502.000000 
	C467.794769,502.000000 387.647369,502.000000 307.000000,502.000000 
M268.413696,287.157349 
	C267.941742,287.926361 267.469788,288.695404 266.997833,289.464447 
	C267.290405,289.614136 267.582977,289.763824 267.875549,289.913513 
	C268.255798,288.947876 268.636078,287.982239 269.507935,287.007263 
	C269.507935,287.007263 270.000000,287.000000 270.213501,287.625763 
	C271.555206,287.828247 272.896912,288.030731 274.238617,288.233185 
	C274.213104,287.690887 274.187561,287.148560 274.162018,286.606262 
	C272.774689,286.737518 271.387329,286.868744 269.782837,286.783325 
	C269.475983,286.637665 269.211548,286.704712 268.413696,287.157349 
M98.474266,121.056694 
	C98.374489,121.390503 98.274712,121.724319 98.026466,122.771637 
	C95.033806,128.788269 91.394928,134.574738 89.156105,140.859894 
	C77.018097,174.935425 64.843643,209.007156 53.438316,243.331589 
	C44.622276,269.863556 38.559189,297.186310 36.234493,325.064026 
	C34.965805,340.278137 35.211319,355.738617 39.027943,370.811676 
	C42.173523,383.234589 47.030140,394.816589 55.875343,404.340851 
	C67.231964,416.569427 80.870338,424.035645 97.764580,426.233215 
	C111.530602,428.023956 123.863785,424.949432 135.718460,418.726227 
	C152.740265,409.790497 165.127930,395.461182 176.440262,380.654388 
	C194.673294,356.788971 211.695129,331.991028 228.983994,307.414948 
	C235.704712,297.861450 241.761246,287.840729 248.722809,277.739044 
	C249.487045,276.662079 250.251297,275.585114 251.619629,274.901428 
	C260.719788,282.526733 271.171539,284.964569 282.480774,281.775818 
	C287.537933,280.349915 292.126160,277.260986 297.019043,275.641754 
	C297.686401,277.092133 298.353760,278.542542 299.035522,280.738190 
	C303.150818,288.455841 306.628845,296.604248 311.500183,303.810852 
	C326.500000,326.001282 341.845123,347.965546 357.419403,369.758026 
	C369.139252,386.157104 381.475128,402.123138 397.851135,414.327454 
	C413.477173,425.972870 430.079651,434.274200 450.603210,431.109283 
	C463.150269,429.174408 474.370422,424.583771 483.929626,416.468872 
	C501.497742,401.555298 508.307831,381.242188 509.799255,359.246948 
	C511.338379,336.548248 509.644623,313.902527 504.055359,291.670746 
	C497.588501,265.947876 492.598083,239.773300 484.639221,214.528625 
	C476.593445,189.008270 465.790466,164.350067 455.973602,139.401459 
	C454.127380,134.709503 451.238434,130.427856 448.975891,125.220520 
	C448.876801,124.579216 448.971619,123.812576 448.650024,123.315102 
	C442.182922,113.311127 437.241791,102.423332 428.593781,93.696823 
	C421.736359,86.777138 414.687347,80.732185 405.709503,76.885094 
	C396.072784,72.755684 386.287903,72.499840 376.001312,73.832817 
	C365.211517,75.230980 355.131744,78.023560 345.314331,84.179131 
	C339.322052,88.899506 332.800842,93.097885 327.484375,98.485199 
	C322.026764,104.015549 317.746582,110.707817 312.315399,117.183060 
	C309.390564,120.449219 306.531586,123.777382 303.526733,126.968201 
	C297.848816,132.997513 292.107300,138.967499 286.345367,144.916763 
	C284.955322,146.352020 283.382233,147.610016 281.140656,149.015076 
	C276.734436,151.238358 271.945099,153.807480 267.391968,150.597855 
	C259.413147,144.973328 251.075974,139.455963 244.424774,132.438080 
	C232.842163,120.216942 222.922638,106.424232 211.397247,94.143089 
	C196.831894,78.622612 178.141846,72.359596 156.182388,73.025635 
	C147.903290,74.575203 139.644333,76.177544 132.246796,81.996346 
	C118.094925,91.818008 107.635468,104.789215 99.403557,120.110680 
	C99.136444,120.276260 99.003563,120.516251 98.474266,121.056694 
z"/>
<path fill="#FFBB33" opacity="1.000000" stroke="none" 
	d="
M448.830658,125.956871 
	C451.238434,130.427856 454.127380,134.709503 455.973602,139.401459 
	C465.790466,164.350067 476.593445,189.008270 484.639221,214.528625 
	C492.598083,239.773300 497.588501,265.947876 504.055359,291.670746 
	C509.644623,313.902527 511.338379,336.548248 509.799255,359.246948 
	C508.307831,381.242188 501.497742,401.555298 483.929626,416.468872 
	C474.370422,424.583771 463.150269,429.174408 450.603210,431.109283 
	C430.079651,434.274200 413.477173,425.972870 397.851135,414.327454 
	C381.475128,402.123138 369.139252,386.157104 357.419403,369.758026 
	C341.845123,347.965546 326.500000,326.001282 311.500183,303.810852 
	C306.628845,296.604248 303.150818,288.455841 299.311890,280.193329 
	C301.579926,277.652405 303.874847,275.875946 305.508270,273.620422 
	C311.150757,265.829041 316.562683,257.870728 322.375122,250.115570 
	C328.469238,257.910980 334.653015,265.300201 339.942047,273.282227 
	C348.890533,286.787048 357.148926,300.746887 365.926483,314.367828 
	C376.200806,330.311432 387.379486,345.513641 400.546265,359.325836 
	C409.078857,368.276703 417.093597,377.667572 427.745605,384.157715 
	C438.216034,390.537292 448.207306,391.319641 457.110687,382.519287 
	C465.009216,374.712158 467.482788,364.740967 467.757385,354.556000 
	C468.098450,341.907745 468.108643,328.923676 465.668945,316.597900 
	C461.122040,293.626465 455.335999,270.843811 448.872009,248.325226 
	C443.084595,228.163712 435.730377,208.449905 428.995544,188.562927 
	C421.885071,167.566833 414.875763,146.516174 402.054504,127.773972 
	C403.336823,126.598618 404.397797,125.414658 405.704163,124.995529 
	C416.368622,121.574020 427.067902,120.183044 437.654327,125.307556 
	C440.945831,126.900826 443.701752,127.205795 445.292603,123.080429 
	C446.645477,124.147194 447.738068,125.052032 448.830658,125.956871 
z"/>
<path fill="#FFBB33" opacity="1.000000" stroke="none" 
	d="
M248.120331,278.032837 
	C241.761246,287.840729 235.704712,297.861450 228.983994,307.414948 
	C211.695129,331.991028 194.673294,356.788971 176.440262,380.654388 
	C165.127930,395.461182 152.740265,409.790497 135.718460,418.726227 
	C123.863785,424.949432 111.530602,428.023956 97.764580,426.233215 
	C80.870338,424.035645 67.231964,416.569427 55.875343,404.340851 
	C47.030140,394.816589 42.173523,383.234589 39.027943,370.811676 
	C35.211319,355.738617 34.965805,340.278137 36.234493,325.064026 
	C38.559189,297.186310 44.622276,269.863556 53.438316,243.331589 
	C64.843643,209.007156 77.018097,174.935425 89.156105,140.859894 
	C91.394928,134.574738 95.033806,128.788269 98.345192,122.407005 
	C98.663918,122.042374 99.152954,122.030304 99.373779,122.283783 
	C101.549828,127.778336 105.053589,127.088829 109.247627,125.397331 
	C121.252251,120.555756 132.917267,121.567993 144.058823,128.398849 
	C139.038193,138.052170 133.011887,146.940338 129.311142,156.709473 
	C117.413643,188.116302 106.114120,219.758041 95.113113,251.492615 
	C89.495811,267.696869 84.838028,284.203125 82.851044,301.411591 
	C81.463684,313.426880 78.262543,325.222504 78.957642,337.484467 
	C79.211769,341.967346 78.389000,346.582001 79.142807,350.949188 
	C80.259216,357.417145 81.198410,364.339142 84.249771,369.962738 
	C90.895668,382.211060 102.377129,389.056976 116.810783,379.848602 
	C122.882767,375.974792 128.343964,370.729980 133.070541,365.237366 
	C148.230423,347.620361 163.234253,329.848541 177.703079,311.662903 
	C194.116028,291.033691 209.886566,269.893372 226.226410,249.159637 
	C229.144531,253.490906 231.606400,257.755463 234.440201,261.756653 
	C238.542679,267.549194 240.796707,274.939148 248.120331,278.032837 
z"/>
<path fill="#FF9F10" opacity="1.000000" stroke="none" 
	d="
M99.818344,120.014282 
	C107.635468,104.789215 118.094925,91.818008 132.769531,82.237396 
	C142.781769,91.485199 152.154938,100.618805 161.797012,109.459122 
	C169.720932,116.724167 178.126556,123.465843 186.007401,130.775101 
	C191.041824,135.444382 195.241165,141.015457 200.286026,145.671799 
	C211.445328,155.971664 223.044373,165.795319 234.196930,176.102234 
	C245.109436,186.187317 255.654251,196.669296 266.447723,206.884888 
	C268.595215,208.917404 271.304932,210.353439 273.467804,212.372620 
	C281.274658,219.660782 288.945465,227.094482 296.694946,234.444427 
	C300.420898,237.978287 304.030182,241.670959 308.035797,244.860291 
	C310.329163,246.686310 313.311859,247.646652 315.822510,249.291443 
	C310.754150,256.055664 305.847443,262.525177 300.603760,268.923431 
	C296.581329,265.855072 292.771332,262.995911 289.250000,259.817017 
	C286.452911,257.291962 284.147949,254.225677 281.380798,251.662781 
	C274.456726,245.249771 267.276337,239.110947 260.418854,232.629303 
	C252.884811,225.508163 245.782196,217.924667 238.146454,210.918777 
	C231.372162,204.703247 224.048996,199.090027 217.121002,193.035995 
	C214.024918,190.330505 211.400085,187.093094 208.391968,184.278122 
	C201.529739,177.856476 194.658096,171.436508 187.550919,165.292709 
	C186.271683,164.186874 183.847580,164.405380 181.648499,163.854141 
	C176.920731,156.135590 172.571640,148.530090 168.051315,141.027756 
	C163.492813,133.462067 158.209549,126.534218 149.960251,122.088974 
	C140.018707,112.720085 120.350883,110.008102 107.691895,116.172607 
	C104.858398,117.546051 102.338371,118.780167 99.818344,120.014282 
z"/>
<path fill="#FF9B0E" opacity="1.000000" stroke="none" 
	d="
M315.984192,248.996735 
	C313.311859,247.646652 310.329163,246.686310 308.035797,244.860291 
	C304.030182,241.670959 300.420898,237.978287 296.694946,234.444427 
	C288.945465,227.094482 281.274658,219.660782 273.467804,212.372620 
	C271.304932,210.353439 268.595215,208.917404 266.447723,206.884888 
	C255.654251,196.669296 245.109436,186.187317 234.196930,176.102234 
	C223.044373,165.795319 211.445328,155.971664 200.286026,145.671799 
	C195.241165,141.015457 191.041824,135.444382 186.007401,130.775101 
	C178.126556,123.465843 169.720932,116.724167 161.797012,109.459122 
	C152.154938,100.618805 142.781769,91.485199 133.122894,82.183929 
	C139.644333,76.177544 147.903290,74.575203 156.667389,73.421417 
	C161.042252,77.832581 164.767044,82.025612 168.857193,85.825386 
	C176.723633,93.133385 184.919861,100.087532 192.753830,107.429031 
	C202.891129,116.929054 212.672134,126.810890 222.862335,136.252243 
	C231.029861,143.819534 239.651459,150.894669 247.916748,158.359634 
	C250.599762,160.782867 252.577164,163.985550 255.252106,166.419891 
	C262.678131,173.177963 270.401855,179.609238 277.817505,186.378235 
	C284.906097,192.848679 291.741699,199.595673 298.712891,206.195358 
	C307.820923,214.818008 316.952942,223.415344 326.002258,232.374817 
	C323.542847,237.148926 321.155792,241.571793 318.534058,246.173157 
	C317.527618,247.233353 316.755920,248.115051 315.984192,248.996735 
z"/>
<path fill="#FF980C" opacity="1.000000" stroke="none" 
	d="
M326.074615,232.023575 
	C316.952942,223.415344 307.820923,214.818008 298.712891,206.195358 
	C291.741699,199.595673 284.906097,192.848679 277.817505,186.378235 
	C270.401855,179.609238 262.678131,173.177963 255.252106,166.419891 
	C252.577164,163.985550 250.599762,160.782867 247.916748,158.359634 
	C239.651459,150.894669 231.029861,143.819534 222.862335,136.252243 
	C212.672134,126.810890 202.891129,116.929054 192.753830,107.429031 
	C184.919861,100.087532 176.723633,93.133385 168.857193,85.825386 
	C164.767044,82.025612 161.042252,77.832581 157.075455,73.491867 
	C178.141846,72.359596 196.831894,78.622612 211.397247,94.143089 
	C222.922638,106.424232 232.842163,120.216942 244.424774,132.438080 
	C251.075974,139.455963 259.413147,144.973328 267.391968,150.597855 
	C271.945099,153.807480 276.734436,151.238358 281.812744,149.151703 
	C290.043671,156.413116 297.444977,163.714767 305.197510,170.622177 
	C317.540344,181.619431 330.117188,192.354019 342.464539,203.540787 
	C341.206268,205.675446 340.011505,207.430771 338.962463,209.269257 
	C334.642426,216.840286 330.366669,224.436569 326.074615,232.023575 
z"/>
<path fill="#FEA312" opacity="1.000000" stroke="none" 
	d="
M181.952057,164.012451 
	C183.847580,164.405380 186.271683,164.186874 187.550919,165.292709 
	C194.658096,171.436508 201.529739,177.856476 208.391968,184.278122 
	C211.400085,187.093094 214.024918,190.330505 217.121002,193.035995 
	C224.048996,199.090027 231.372162,204.703247 238.146454,210.918777 
	C245.782196,217.924667 252.884811,225.508163 260.418854,232.629303 
	C267.276337,239.110947 274.456726,245.249771 281.380798,251.662781 
	C284.147949,254.225677 286.452911,257.291962 289.250000,259.817017 
	C292.771332,262.995911 296.581329,265.855072 300.451080,269.212860 
	C299.399323,271.357941 298.163269,273.142365 296.927216,274.926788 
	C292.126160,277.260986 287.537933,280.349915 282.480774,281.775818 
	C271.171539,284.964569 260.719788,282.526733 251.221008,274.404968 
	C245.557877,266.786957 240.310455,259.652588 235.019745,252.550491 
	C233.095856,249.967865 231.068741,247.462112 229.070236,244.563416 
	C221.410385,231.275299 213.740891,218.361603 206.135361,205.410324 
	C198.042694,191.629578 190.010605,177.813248 181.952057,164.012451 
z"/>
<path fill="#FF9109" opacity="1.000000" stroke="none" 
	d="
M342.595062,203.199692 
	C330.117188,192.354019 317.540344,181.619431 305.197510,170.622177 
	C297.444977,163.714767 290.043671,156.413116 282.189056,149.118942 
	C283.382233,147.610016 284.955322,146.352020 286.345367,144.916763 
	C292.107300,138.967499 297.848816,132.997513 303.526733,126.968201 
	C306.531586,123.777382 309.390564,120.449219 312.806213,117.335052 
	C317.460754,121.710205 321.469604,126.100677 325.817474,130.124878 
	C338.456482,141.822998 351.231293,153.374374 363.855103,165.321808 
	C356.703247,178.173447 349.649139,190.686569 342.595062,203.199692 
z"/>
<path fill="#FE8905" opacity="1.000000" stroke="none" 
	d="
M363.952850,164.983307 
	C351.231293,153.374374 338.456482,141.822998 325.817474,130.124878 
	C321.469604,126.100677 317.460754,121.710205 313.124084,117.189316 
	C317.746582,110.707817 322.026764,104.015549 327.484375,98.485199 
	C332.800842,93.097885 339.322052,88.899506 345.802979,84.331985 
	C352.112396,90.074135 357.914703,95.682846 363.759125,101.247276 
	C369.613556,106.821251 375.723206,112.147972 381.291168,117.992523 
	C383.784027,120.609222 385.227783,124.225388 386.937622,127.633270 
	C383.831818,131.834244 380.608643,135.594788 378.109650,139.787003 
	C373.178558,148.059311 368.648651,156.570755 363.952850,164.983307 
z"/>
<path fill="#FF8201" opacity="1.000000" stroke="none" 
	d="
M387.147644,127.387993 
	C385.227783,124.225388 383.784027,120.609222 381.291168,117.992523 
	C375.723206,112.147972 369.613556,106.821251 363.759125,101.247276 
	C357.914703,95.682846 352.112396,90.074135 346.122559,84.186646 
	C355.131744,78.023560 365.211517,75.230980 376.001312,73.832817 
	C386.287903,72.499840 396.072784,72.755684 405.709503,76.885094 
	C414.687347,80.732185 421.736359,86.777138 428.593781,93.696823 
	C437.241791,102.423332 442.182922,113.311127 448.650024,123.315102 
	C448.971619,123.812576 448.876801,124.579216 448.903259,125.588699 
	C447.738068,125.052032 446.645477,124.147194 445.204956,122.754776 
	C444.494446,121.720795 444.235962,121.050407 443.754150,120.646057 
	C430.303497,109.357574 409.115540,112.400116 396.295502,120.951454 
	C396.044922,121.118591 395.938019,121.501152 395.422699,121.855728 
	C392.436737,123.748169 389.792175,125.568077 387.147644,127.387993 
z"/>
<path fill="#EEAE2F" opacity="1.000000" stroke="none" 
	d="
M296.973145,275.284271 
	C298.163269,273.142365 299.399323,271.357941 300.788086,269.284088 
	C305.847443,262.525177 310.754150,256.055664 315.822510,249.291458 
	C316.755920,248.115051 317.527618,247.233353 318.680176,246.467194 
	C320.061523,247.713806 321.061951,248.844894 322.062408,249.975983 
	C316.562683,257.870728 311.150757,265.829041 305.508270,273.620422 
	C303.874847,275.875946 301.579926,277.652405 299.304688,279.820679 
	C298.353760,278.542542 297.686401,277.092133 296.973145,275.284271 
z"/>
<path fill="#EDAE2F" opacity="1.000000" stroke="none" 
	d="
M229.088745,244.921295 
	C231.068741,247.462112 233.095856,249.967865 235.019745,252.550491 
	C240.310455,259.652588 245.557877,266.786957 250.918976,274.208374 
	C250.251297,275.585114 249.487045,276.662079 248.421570,277.885925 
	C240.796707,274.939148 238.542679,267.549194 234.440201,261.756653 
	C231.606400,257.755463 229.144531,253.490906 226.331360,248.850937 
	C227.127106,247.212311 228.107925,246.066803 229.088745,244.921295 
z"/>
<path fill="#F5B331" opacity="1.000000" stroke="none" 
	d="
M99.610947,120.062477 
	C102.338371,118.780167 104.858398,117.546051 107.718353,116.557777 
	C108.826042,121.025116 112.028801,119.917610 114.714172,119.785149 
	C118.824661,119.582405 122.963562,118.811493 127.029732,119.109512 
	C133.951263,119.616798 140.840668,120.727318 145.955292,126.379288 
	C145.278442,127.110168 144.698120,127.573586 144.117798,128.037018 
	C132.917267,121.567993 121.252251,120.555756 109.247627,125.397331 
	C105.053589,127.088829 101.549828,127.778336 99.331421,121.984253 
	C99.047134,121.231041 99.026031,121.030846 99.004921,120.830643 
	C99.003563,120.516251 99.136444,120.276260 99.610947,120.062477 
z"/>
<path fill="#0A0A0A" opacity="1.000000" stroke="none" 
	d="
M270.106750,287.312866 
	C271.387329,286.868744 272.774689,286.737518 274.162018,286.606262 
	C274.187561,287.148560 274.213104,287.690887 274.238617,288.233185 
	C272.896912,288.030731 271.555206,287.828247 270.106750,287.312866 
z"/>
<path fill="#0A0A0A" opacity="1.000000" stroke="none" 
	d="
M269.016327,287.016602 
	C268.636078,287.982239 268.255798,288.947876 267.875549,289.913513 
	C267.582977,289.763824 267.290405,289.614136 266.997833,289.464447 
	C267.469788,288.695404 267.941742,287.926361 268.707489,287.079254 
	C269.001282,287.001160 269.016327,287.016602 269.016327,287.016602 
z"/>
<path fill="#FF9F10" opacity="1.000000" stroke="none" 
	d="
M98.739594,120.943665 
	C99.026031,121.030846 99.047134,121.231041 99.110596,121.730774 
	C99.152954,122.030304 98.663918,122.042374 98.419426,122.050247 
	C98.274712,121.724319 98.374489,121.390503 98.739594,120.943665 
z"/>
<path fill="#0A0A0A" opacity="1.000000" stroke="none" 
	d="
M268.995422,286.992798 
	C269.211548,286.704712 269.475983,286.637665 269.891418,286.891663 
	C270.000000,287.000000 269.507935,287.007263 269.262146,287.011932 
	C269.016327,287.016602 269.001282,287.001160 268.995422,286.992798 
z"/>
<path fill="#000000" opacity="1.000000" stroke="none" 
	d="
M322.375122,250.115570 
	C321.061951,248.844894 320.061523,247.713806 318.914917,246.288681 
	C321.155792,241.571793 323.542847,237.148926 326.002258,232.374817 
	C330.366669,224.436569 334.642426,216.840286 338.962463,209.269257 
	C340.011505,207.430771 341.206268,205.675446 342.464539,203.540787 
	C349.649139,190.686569 356.703247,178.173447 363.855103,165.321808 
	C368.648651,156.570755 373.178558,148.059311 378.109650,139.787003 
	C380.608643,135.594788 383.831818,131.834244 386.937622,127.633270 
	C389.792175,125.568077 392.436737,123.748169 395.644287,122.139351 
	C398.120514,124.273567 400.033691,126.196686 401.946899,128.119812 
	C414.875763,146.516174 421.885071,167.566833 428.995544,188.562927 
	C435.730377,208.449905 443.084595,228.163712 448.872009,248.325226 
	C455.335999,270.843811 461.122040,293.626465 465.668945,316.597900 
	C468.108643,328.923676 468.098450,341.907745 467.757385,354.556000 
	C467.482788,364.740967 465.009216,374.712158 457.110687,382.519287 
	C448.207306,391.319641 438.216034,390.537292 427.745605,384.157715 
	C417.093597,377.667572 409.078857,368.276703 400.546265,359.325836 
	C387.379486,345.513641 376.200806,330.311432 365.926483,314.367828 
	C357.148926,300.746887 348.890533,286.787048 339.942047,273.282227 
	C334.653015,265.300201 328.469238,257.910980 322.375122,250.115570 
z"/>
<path fill="#ECAC2E" opacity="1.000000" stroke="none" 
	d="
M402.054504,127.773972 
	C400.033691,126.196686 398.120514,124.273567 395.985718,122.066818 
	C395.938019,121.501152 396.044922,121.118591 396.295502,120.951454 
	C409.115540,112.400116 430.303497,109.357574 443.754150,120.646057 
	C444.235962,121.050407 444.494446,121.720795 444.944672,122.592857 
	C443.701752,127.205795 440.945831,126.900826 437.654327,125.307556 
	C427.067902,120.183044 416.368622,121.574020 405.704163,124.995529 
	C404.397797,125.414658 403.336823,126.598618 402.054504,127.773972 
z"/>
<path fill="#000000" opacity="1.000000" stroke="none" 
	d="
M144.058823,128.398865 
	C144.698120,127.573586 145.278442,127.110168 146.266876,126.239868 
	C147.811295,124.680847 148.947617,123.528717 150.083939,122.376587 
	C158.209549,126.534218 163.492813,133.462067 168.051315,141.027756 
	C172.571640,148.530090 176.920731,156.135590 181.648499,163.854156 
	C190.010605,177.813248 198.042694,191.629578 206.135361,205.410324 
	C213.740891,218.361603 221.410385,231.275299 229.070251,244.563416 
	C228.107925,246.066803 227.127106,247.212311 226.041336,248.666534 
	C209.886566,269.893372 194.116028,291.033691 177.703079,311.662903 
	C163.234253,329.848541 148.230423,347.620361 133.070541,365.237366 
	C128.343964,370.729980 122.882767,375.974792 116.810783,379.848602 
	C102.377129,389.056976 90.895668,382.211060 84.249771,369.962738 
	C81.198410,364.339142 80.259216,357.417145 79.142807,350.949188 
	C78.389000,346.582001 79.211769,341.967346 78.957642,337.484467 
	C78.262543,325.222504 81.463684,313.426880 82.851044,301.411591 
	C84.838028,284.203125 89.495811,267.696869 95.113113,251.492615 
	C106.114120,219.758041 117.413643,188.116302 129.311142,156.709473 
	C133.011887,146.940338 139.038193,138.052170 144.058823,128.398865 
z"/>
<path fill="#EAAB2F" opacity="1.000000" stroke="none" 
	d="
M149.960251,122.088974 
	C148.947617,123.528717 147.811295,124.680847 146.363403,125.972404 
	C140.840668,120.727318 133.951263,119.616798 127.029732,119.109512 
	C122.963562,118.811493 118.824661,119.582405 114.714172,119.785149 
	C112.028801,119.917610 108.826042,121.025116 108.031815,116.418442 
	C120.350883,110.008102 140.018707,112.720085 149.960251,122.088974 
z"/>
</svg>